<svg width="34" height="34" viewBox="0 0 34 34" fill="none" xmlns="http://www.w3.org/2000/svg">
<path d="M17.0001 19.0258C17.5805 19.0258 18.1553 18.9115 18.6915 18.6894C19.2278 18.4673 19.7151 18.1417 20.1255 17.7312C20.5359 17.3208 20.8615 16.8336 21.0836 16.2973C21.3058 15.761 21.4201 15.1863 21.4201 14.6058C21.4201 14.0254 21.3058 13.4506 21.0836 12.9144C20.8615 12.3781 20.5359 11.8909 20.1255 11.4804C19.7151 11.07 19.2278 10.7444 18.6915 10.5223C18.1553 10.3002 17.5805 10.1858 17.0001 10.1858C15.8278 10.1858 14.7036 10.6515 13.8747 11.4804C13.0458 12.3093 12.5801 13.4336 12.5801 14.6058C12.5801 15.7781 13.0458 16.9023 13.8747 17.7312C14.7036 18.5602 15.8278 19.0258 17.0001 19.0258Z" stroke="#EBEBEB" stroke-width="1.5"/>
<path d="M5.12833 12.0275C7.91916 -0.240831 26.095 -0.226664 28.8717 12.0417C30.5008 19.2383 26.0242 25.33 22.1 29.0983C20.7288 30.4208 18.898 31.1599 16.9929 31.1599C15.0878 31.1599 13.2571 30.4208 11.8858 29.0983C7.97583 25.33 3.49916 19.2242 5.12833 12.0275Z" stroke="#EBEBEB" stroke-width="1.5"/>
</svg>
