<svg width="34" height="34" viewBox="0 0 34 34" fill="none" xmlns="http://www.w3.org/2000/svg">
<path d="M17.0002 2.83333V12.75M17.0002 12.75L19.8335 9.91667M17.0002 12.75L14.1668 9.91667M2.80518 18.4167H9.05268C9.59101 18.4167 10.0727 18.7142 10.3135 19.1958L11.971 22.5108C12.2056 22.9829 12.5672 23.3801 13.0152 23.6579C13.4631 23.9357 13.9797 24.0831 14.5068 24.0833H19.5077C20.0348 24.0831 20.5514 23.9357 20.9994 23.6579C21.4473 23.3801 21.8089 22.9829 22.0435 22.5108L23.701 19.1958C23.8187 18.9622 23.9989 18.7657 24.2214 18.6282C24.4439 18.4907 24.7002 18.4175 24.9618 18.4167H31.1385" stroke="#EBEBEB" stroke-width="1.5" stroke-linecap="round" stroke-linejoin="round"/>
<path d="M9.91683 5.85083C4.90183 6.5875 2.8335 9.53417 2.8335 15.5833V21.25C2.8335 28.3333 5.66683 31.1667 12.7502 31.1667H21.2502C28.3335 31.1667 31.1668 28.3333 31.1668 21.25V15.5833C31.1668 9.53417 29.0985 6.5875 24.0835 5.85083" stroke="#EBEBEB" stroke-width="1.5" stroke-linecap="round" stroke-linejoin="round"/>
</svg>
