<svg width="34" height="34" viewBox="0 0 34 34" fill="none" xmlns="http://www.w3.org/2000/svg">
<path d="M31.1243 25.9675C31.1243 26.4775 31.011 27.0017 30.7702 27.5117C30.5293 28.0217 30.2177 28.5033 29.8068 28.9567C29.1127 29.7217 28.3477 30.2742 27.4835 30.6283C26.6335 30.9825 25.7127 31.1667 24.721 31.1667C23.276 31.1667 21.7318 30.8267 20.1027 30.1325C18.4735 29.4383 16.8443 28.5033 15.2293 27.3275C13.5833 26.1235 12.0301 24.7975 10.5827 23.3608C9.15008 21.9187 7.8288 20.3701 6.63016 18.7283C5.4685 17.1133 4.5335 15.4983 3.8535 13.8975C3.1735 12.2825 2.8335 10.7383 2.8335 9.265C2.8335 8.30167 3.0035 7.38083 3.3435 6.53083C3.6835 5.66667 4.22183 4.87333 4.97266 4.165C5.87933 3.2725 6.871 2.83333 7.91933 2.83333C8.316 2.83333 8.71266 2.91833 9.06683 3.08833C9.43516 3.25833 9.761 3.51333 10.016 3.88167L13.3027 8.51417C13.5577 8.86833 13.7418 9.19417 13.8693 9.50583C13.9968 9.80333 14.0677 10.1008 14.0677 10.37C14.0677 10.71 13.9685 11.05 13.7702 11.3758C13.586 11.7017 13.3168 12.0417 12.9768 12.3817L11.9002 13.5008C11.7443 13.6567 11.6735 13.8408 11.6735 14.0675C11.6735 14.1808 11.6877 14.28 11.716 14.3933C11.7585 14.5067 11.801 14.5917 11.8293 14.6767C12.0843 15.1442 12.5235 15.7533 13.1468 16.49C13.7843 17.2267 14.4643 17.9775 15.201 18.7283C15.966 19.4792 16.7027 20.1733 17.4535 20.8108C18.1902 21.4342 18.7993 21.8592 19.281 22.1142C19.3518 22.1425 19.4368 22.185 19.536 22.2275C19.6493 22.27 19.7627 22.2842 19.8902 22.2842C20.131 22.2842 20.3152 22.1992 20.471 22.0433L21.5477 20.9808C21.9018 20.6267 22.2418 20.3575 22.5677 20.1875C22.8935 19.9892 23.2193 19.89 23.5735 19.89C23.8427 19.89 24.126 19.9467 24.4377 20.0742C24.7493 20.2017 25.0752 20.3858 25.4293 20.6267L30.1185 23.9558C30.4868 24.2108 30.7418 24.5083 30.8977 24.8625C31.0393 25.2167 31.1243 25.5708 31.1243 25.9675Z" stroke="white" stroke-width="1.5" stroke-miterlimit="10"/>
<path d="M26.2083 12.75C26.2083 11.9 25.5425 10.5967 24.5508 9.53417C23.6442 8.55667 22.44 7.79167 21.25 7.79167M31.1667 12.75C31.1667 7.2675 26.7325 2.83333 21.25 2.83333" stroke="white" stroke-width="1.5" stroke-linecap="round" stroke-linejoin="round"/>
</svg>
